<?xml version="1.0"?>
<svg xmlns="http://www.w3.org/2000/svg" xmlns:xlink="http://www.w3.org/1999/xlink" xmlns:svgjs="http://svgjs.com/svgjs" version="1.1" width="512" height="512" x="0" y="0" viewBox="0 0 512 512" style="enable-background:new 0 0 512 512" xml:space="preserve" class=""><g transform="matrix(-1,-1.2246467991473532e-16,1.2246467991473532e-16,-1,512.0014367103577,512.0000276565552)">
<path xmlns="http://www.w3.org/2000/svg" style="" d="M507.607,4.395c-4.242-4.245-10.61-5.551-16.177-3.32l-482,192.798  c-5.516,2.205-9.209,7.458-9.42,13.394c-0.211,5.936,3.101,11.438,8.444,14.029l190.067,92.182l92.182,190.068  c2.514,5.184,7.764,8.454,13.493,8.454c0.178,0,0.357-0.003,0.536-0.01c5.936-0.211,11.188-3.904,13.394-9.419L510.928,20.573  C513.156,15.002,511.85,8.638,507.607,4.395z" fill="#e7e7eb" data-original="#4dbbeb" class=""/>
<path xmlns="http://www.w3.org/2000/svg" style="" d="M507.607,4.395L198.522,313.477l92.182,190.068c2.514,5.184,7.764,8.454,13.493,8.454  c0.178,0,0.357-0.003,0.536-0.01c5.936-0.211,11.188-3.904,13.394-9.419L510.928,20.573C513.156,15.002,511.85,8.638,507.607,4.395  L507.607,4.395z" fill="#e7e7eb" data-original="#2488ff" class=""/>
<g xmlns="http://www.w3.org/2000/svg">
</g>
<g xmlns="http://www.w3.org/2000/svg">
</g>
<g xmlns="http://www.w3.org/2000/svg">
</g>
<g xmlns="http://www.w3.org/2000/svg">
</g>
<g xmlns="http://www.w3.org/2000/svg">
</g>
<g xmlns="http://www.w3.org/2000/svg">
</g>
<g xmlns="http://www.w3.org/2000/svg">
</g>
<g xmlns="http://www.w3.org/2000/svg">
</g>
<g xmlns="http://www.w3.org/2000/svg">
</g>
<g xmlns="http://www.w3.org/2000/svg">
</g>
<g xmlns="http://www.w3.org/2000/svg">
</g>
<g xmlns="http://www.w3.org/2000/svg">
</g>
<g xmlns="http://www.w3.org/2000/svg">
</g>
<g xmlns="http://www.w3.org/2000/svg">
</g>
<g xmlns="http://www.w3.org/2000/svg">
</g>
</g></svg>
